<?xml version="1.0" encoding="UTF-8"?>
<svg xmlns="http://www.w3.org/2000/svg" viewBox="0 0 512 512" width="512" height="512">
  <!-- Versión clara: fondo blanco/transparente para uso sobre fondos claros -->
  <rect width="512" height="512" rx="96" ry="96" fill="#ffffff"/>

  <ellipse cx="256" cy="270" rx="180" ry="32" fill="#3b82f6" opacity="0.12"/>

  <rect x="56" y="172" width="80" height="168" rx="22" ry="22" fill="#3b82f6"/>
  <rect x="148" y="208" width="36" height="96" rx="10" ry="10" fill="#60a5fa"/>
  <rect x="184" y="244" width="144" height="32" rx="8" ry="8" fill="#3b82f6"/>
  <rect x="328" y="208" width="36" height="96" rx="10" ry="10" fill="#60a5fa"/>
  <rect x="376" y="172" width="80" height="168" rx="22" ry="22" fill="#3b82f6"/>

  <path d="M 268 214 L 244 264 L 260 264 L 252 300 L 276 250 L 260 250 Z"
        fill="#f59e0b"/>

  <!-- Highlight -->
  <rect x="64" y="180" width="64" height="6" rx="3" fill="#ffffff" opacity="0.25"/>
  <rect x="384" y="180" width="64" height="6" rx="3" fill="#ffffff" opacity="0.25"/>
</svg>
